<svg width="28" height="27" viewBox="0 0 28 27" fill="none" xmlns="http://www.w3.org/2000/svg">
<path fill-rule="evenodd" clip-rule="evenodd" d="M13.6091 0C6.09339 0 6.10352e-05 6.09367 6.10352e-05 13.6104C6.10352e-05 19.6235 3.89873 24.7247 9.30738 26.5233C9.98856 26.6493 10.2363 26.2302 10.2363 25.8683C10.2363 25.5458 10.2245 24.6905 10.2185 23.5536C6.43258 24.3768 5.63379 21.7288 5.63379 21.7288C5.01473 20.1567 4.12242 19.7387 4.12242 19.7387C2.88672 18.8949 4.21629 18.9113 4.21629 18.9113C5.58215 19.0079 6.30102 20.3134 6.30102 20.3134C7.51473 22.3933 9.48675 21.7913 10.2618 21.4451C10.385 20.564 10.7374 19.9655 11.1258 19.6245C8.10414 19.2812 4.92713 18.1135 4.92713 12.8985C4.92713 11.4123 5.45722 10.1972 6.32754 9.24555C6.1883 8.90286 5.72034 7.51921 6.4612 5.64455C6.4612 5.64455 7.60372 5.27883 10.2042 7.04077C11.2892 6.73752 12.4537 6.58607 13.6112 6.58153C14.767 6.58642 15.9318 6.73752 17.0182 7.04077C19.6169 5.27883 20.7577 5.64455 20.7577 5.64455C21.5003 7.51921 21.0327 8.90286 20.8931 9.24555C21.7655 10.1972 22.2918 11.4123 22.2918 12.8985C22.2918 18.1257 19.1102 19.2773 16.0784 19.613C16.5663 20.0335 17.0018 20.8658 17.0018 22.1357C17.0018 23.9542 16.9854 25.4216 16.9854 25.8679C16.9854 26.2326 17.23 26.6566 17.9209 26.5215C23.3237 24.7191 27.2195 19.6218 27.2195 13.6104C27.2195 6.09367 21.1262 0 13.6091 0Z" fill="white"/>
</svg>
