<svg width="22" height="22" viewBox="0 0 22 22" fill="none" xmlns="http://www.w3.org/2000/svg">
<path d="M17.4239 0H4.14855C1.84379 0 0 1.84379 0 4.14855V17.4239C0 19.7286 1.84379 21.5724 4.14855 21.5724H17.4239C19.7286 21.5724 21.5724 19.7286 21.5724 17.4239V4.14854C21.5724 1.84379 19.7286 0 17.4239 0ZM18.6224 2.48912H19.0833V6.1767H15.3957V2.48912H18.6224ZM7.74396 8.57366C8.38928 7.65175 9.58775 7.00642 10.7862 7.00642C11.9847 7.00642 13.1832 7.65175 13.8285 8.57366C14.2894 9.21898 14.566 9.9565 14.566 10.7862C14.566 12.9066 12.8144 14.566 10.7862 14.566C8.75804 14.566 7.00645 12.9066 7.00645 10.7862C7.00643 9.9565 7.28301 9.21898 7.74396 8.57366ZM19.4521 17.4239C19.4521 18.5302 18.5302 19.4521 17.4239 19.4521H4.14855C3.04228 19.4521 2.12037 18.5302 2.12037 17.4239V8.57366H5.34701C5.07043 9.21898 4.88607 10.0487 4.88607 10.7862C4.88607 14.0129 7.55957 16.6864 10.7862 16.6864C14.0128 16.6864 16.6864 14.0129 16.6864 10.7862C16.6864 10.0487 16.502 9.21897 16.2254 8.57366H19.452L19.4521 17.4239Z" fill="white"/>
</svg>
