<svg width="28" height="28" viewBox="0 0 28 28" fill="none" xmlns="http://www.w3.org/2000/svg">
<path d="M25.2034 0H2.00939C0.900194 0 6.10352e-05 0.878962 6.10352e-05 1.96131V25.2555C6.10352e-05 26.3394 0.900194 27.2195 2.00939 27.2195H25.2034C26.3134 27.2195 27.2195 26.3394 27.2195 25.2555V1.96131C27.2195 0.878962 26.3134 0 25.2034 0ZM8.0729 23.1948H4.03384V10.2054H8.0729V23.1948ZM6.05337 8.42934C4.75931 8.42934 3.71325 7.38064 3.71325 6.08771C3.71325 4.79668 4.75931 3.74797 6.05337 3.74797C7.34441 3.74797 8.39311 4.79668 8.39311 6.08771C8.39311 7.38064 7.34441 8.42934 6.05337 8.42934ZM23.1933 23.1948H19.1607V16.8783C19.1607 15.3714 19.1312 13.4339 17.0621 13.4339C14.9609 13.4339 14.6407 15.0751 14.6407 16.7691V23.1952H10.6051V10.2054H14.4782V11.9792H14.5334C15.0725 10.9585 16.3896 9.88143 18.3539 9.88143C22.4391 9.88143 23.1937 12.5709 23.1937 16.0697L23.1933 23.1948Z" fill="white"/>
</svg>
