<svg width="28" height="22" viewBox="0 0 28 22" fill="none" xmlns="http://www.w3.org/2000/svg">
<path d="M26.316 0H0.903606C0.405172 0 6.10352e-05 0.405465 6.10352e-05 0.903899V2.7223C6.10352e-05 2.80608 0.0909105 2.90223 0.165145 2.94112L13.5225 10.5707C13.5571 10.5909 13.596 10.6 13.6349 10.6C13.6745 10.6 13.7144 10.5898 13.7494 10.5689L26.7031 2.94854C26.7759 2.90789 26.9689 2.80043 27.0414 2.75094C27.129 2.69119 27.2195 2.63711 27.2195 2.53V0.903546C27.2195 0.405465 26.8144 0 26.316 0Z" fill="white"/>
<path d="M27.1067 5.46407C27.036 5.42306 26.9498 5.42483 26.8787 5.46548L19.5482 9.77853C19.4895 9.81247 19.4489 9.87256 19.439 9.94044C19.4301 10.008 19.4514 10.0769 19.497 10.1267L26.8285 18.0299C26.872 18.0769 26.9314 18.102 26.9936 18.102C27.0216 18.102 27.0498 18.0967 27.0763 18.0868C27.163 18.0525 27.2195 17.9695 27.2195 17.8762V5.66026C27.2195 5.57896 27.1767 5.50437 27.1067 5.46407Z" fill="white"/>
<path d="M17.4358 11.2268C17.3637 11.1487 17.2477 11.1313 17.1562 11.1851L14.2179 12.914C13.8728 13.117 13.431 13.1187 13.0838 12.9215L10.498 11.4442C10.4124 11.3958 10.3046 11.4074 10.2325 11.4746L0.412991 20.5829C0.360673 20.6316 0.334514 20.702 0.342291 20.773C0.350068 20.8441 0.391427 20.9077 0.45329 20.9434C0.606001 21.0332 0.753411 21.076 0.903295 21.076H26.0559C26.146 21.076 26.2273 21.0226 26.2627 20.9399C26.2987 20.8579 26.2825 20.7621 26.2209 20.6963L17.4358 11.2268Z" fill="white"/>
<path d="M8.07193 10.3972C8.12496 10.3487 8.15147 10.2773 8.14369 10.2063C8.13592 10.1349 8.0935 10.0716 8.03128 10.0355L0.337007 5.64083C0.268428 5.60124 0.181821 5.60194 0.111828 5.64224C0.042542 5.68254 0.00012207 5.75713 0.00012207 5.83738V17.3685C0.00012207 17.458 0.053147 17.5393 0.135159 17.575C0.164146 17.5881 0.1949 17.5944 0.226008 17.5944C0.281508 17.5944 0.337007 17.5736 0.379427 17.534L8.07193 10.3972Z" fill="white"/>
</svg>
