<svg width="239" height="239" viewBox="0 0 239 239" fill="none" xmlns="http://www.w3.org/2000/svg">
<g filter="url(#filter0_f_6_25)">
<circle cx="119.5" cy="119.5" r="99.5" transform="rotate(12.9321 119.5 119.5)" fill="#32385A" fill-opacity="0.5"/>
</g>
<g clip-path="url(#clip0_6_25)">
<path d="M184.19 134.791C186.166 126.183 177.224 115.54 161.803 106.673C169.498 90.7051 170.875 76.9111 164.367 70.8991C162.87 69.4959 160.96 68.5553 158.754 68.0489L157.398 73.9559C158.62 74.2366 159.549 74.7008 160.269 75.3403C163.409 78.2363 163.171 86.4635 159.625 96.3016C158.761 98.7245 157.68 101.237 156.481 103.778C151.564 101.311 146.103 99.0248 140.269 97.0161C137.807 91.2919 135.108 85.9874 132.255 81.2331C142.762 75.1962 151.903 72.6663 157.431 73.9355L158.787 68.0285C151.479 66.3504 140.72 69.3455 128.979 76.1306C121.362 64.9562 112.975 57.6206 105.667 55.9426L104.31 61.8496C109.811 63.1127 116.966 69.3567 123.799 79.3192C119.184 82.3588 114.448 85.9282 109.788 90.0171C103.636 89.2737 97.7244 88.948 92.2178 89.0499C92.2148 86.2607 92.353 83.5875 92.5998 81.0508C93.6742 70.6452 97.022 63.1319 101.09 61.8631C101.997 61.5693 103.082 61.5954 104.304 61.8761L105.661 55.969C103.428 55.4565 101.299 55.4695 99.3142 56.0734C90.8614 58.6499 86.1156 71.6424 86.1127 89.3212C68.4155 90.6117 55.7855 96.2724 53.8148 104.855C51.8381 113.464 60.7805 124.106 76.2013 132.973C68.5062 148.941 67.1293 162.735 73.6379 168.747C75.1341 170.15 77.0443 171.091 79.2766 171.604C86.5846 173.282 97.3436 170.287 109.085 163.501C116.702 174.676 125.089 182.011 132.397 183.69C134.629 184.202 136.758 184.189 138.743 183.585C147.196 181.009 151.942 168.016 151.945 150.337C169.583 149.061 182.219 143.374 184.19 134.791ZM153.646 109.178C151.879 112.37 149.847 115.612 147.656 118.818C147.053 116.449 146.397 114.067 145.635 111.661C144.899 109.261 144.071 106.896 143.231 104.584C146.877 106.007 150.36 107.531 153.646 109.178ZM134.998 134.595C132.104 137.695 129.199 140.597 126.27 143.243C122.231 142.678 118.176 141.942 114.136 141.014C110.124 140.093 106.153 138.986 102.293 137.765C100.811 134.107 99.4314 130.248 98.1736 126.223C96.9507 122.289 95.926 118.345 95.0669 114.411C97.5295 111.24 100.205 108.117 102.995 105.105C105.889 102.005 108.793 99.1024 111.723 96.4566C115.761 97.0215 119.817 97.7575 123.856 98.685C127.869 99.6064 131.839 100.713 135.699 101.934C137.181 105.593 138.561 109.451 139.819 113.477C141.042 117.411 142.066 121.355 142.925 125.289C140.436 128.454 137.787 131.582 134.998 134.595ZM144.372 133.122C144.992 137.001 145.399 140.831 145.618 144.507C141.942 144.555 138.111 144.428 134.183 144.112C135.954 142.371 137.736 140.577 139.451 138.712C141.16 136.874 142.796 134.991 144.372 133.122ZM110.935 155.198C109.048 152.088 107.227 148.686 105.494 145.025C107.861 145.68 110.288 146.321 112.759 146.889C115.257 147.462 117.741 147.977 120.19 148.4C117.086 150.95 113.964 153.217 110.935 155.198ZM94.7464 135.056C91.1006 133.634 87.618 132.109 84.3314 130.462C86.0993 127.27 88.1306 124.028 90.3215 120.822C90.9244 123.192 91.5806 125.573 92.343 127.979C93.1054 130.385 93.9065 132.744 94.7464 135.056ZM127.042 84.4421C128.93 87.5525 130.751 90.9543 132.484 94.6149C130.116 93.9598 127.69 93.3189 125.218 92.7514C122.72 92.1778 120.237 91.6633 117.788 91.2405C120.891 88.6905 124.014 86.4236 127.042 84.4421ZM103.795 95.5286C102.024 97.2692 100.242 99.0629 98.5265 100.928C96.8175 102.766 95.1882 104.623 93.6121 106.492C92.9921 102.613 92.5847 98.7826 92.3656 95.1072C96.0354 95.0854 99.8669 95.2123 103.795 95.5286ZM72.1297 123.17C63.6407 117.01 58.7594 110.368 59.7144 106.21C60.6693 102.051 67.9653 98.1768 78.285 96.3636C80.7955 95.9083 83.4942 95.6077 86.2605 95.3785C86.5831 100.918 87.3354 106.78 88.5356 112.883C84.8256 117.832 81.6244 122.757 78.9501 127.581C76.5078 126.156 74.2166 124.681 72.1297 123.17ZM77.735 164.306C74.5953 161.41 74.8339 153.183 78.3798 143.345C79.2439 140.922 80.3244 138.409 81.5233 135.868C86.44 138.336 91.9019 140.622 97.7352 142.63C100.198 148.355 102.896 153.659 105.749 158.413C95.2427 164.45 86.1012 166.98 80.5737 165.711C79.384 165.41 78.4289 164.939 77.735 164.306ZM145.405 158.596C144.33 169.001 140.982 176.514 136.914 177.783C136.008 178.077 134.923 178.051 133.7 177.77C128.199 176.507 121.044 170.263 114.212 160.301C118.826 157.261 123.563 153.692 128.222 149.603C134.374 150.346 140.286 150.672 145.793 150.57C145.79 153.386 145.678 156.065 145.405 158.596ZM159.693 143.277C157.182 143.732 154.484 144.033 151.717 144.262C151.395 138.722 150.642 132.861 149.442 126.757C153.152 121.809 156.353 116.883 159.028 112.059C161.47 113.485 163.761 114.959 165.875 116.476C174.364 122.636 179.245 129.278 178.29 133.437C177.309 137.59 170.013 141.463 159.693 143.277Z" fill="#61DAFB"/>
<path d="M116.196 131.923C122.903 133.463 129.585 129.291 131.12 122.606C132.655 115.92 128.463 109.252 121.755 107.712C115.048 106.171 108.366 110.343 106.831 117.028C105.296 123.714 109.489 130.382 116.196 131.923Z" fill="#61DAFB"/>
</g>
<defs>
<filter id="filter0_f_6_25" x="9.97803" y="9.97803" width="219.044" height="219.044" filterUnits="userSpaceOnUse" color-interpolation-filters="sRGB">
<feFlood flood-opacity="0" result="BackgroundImageFix"/>
<feBlend mode="normal" in="SourceGraphic" in2="BackgroundImageFix" result="shape"/>
<feGaussianBlur stdDeviation="5" result="effect1_foregroundBlur_6_25"/>
</filter>
<clipPath id="clip0_6_25">
<rect width="133.768" height="151.934" fill="white" transform="translate(70.8188 30.8017) rotate(12.9321)"/>
</clipPath>
</defs>
</svg>
